<svg width="200" height="40" viewBox="0 0 200 40" fill="none" xmlns="http://www.w3.org/2000/svg">
  <!-- Home -->
  <g transform="translate(10, 8)">
    <path d="M12 2L2 10V20H8V14H16V20H22V10L12 2Z" stroke="currentColor" stroke-width="2" stroke-linecap="round" stroke-linejoin="round"/>
  </g>
  <!-- Activity -->
  <g transform="translate(50, 8)">
    <path d="M18 20V10M12 20V4M6 20V14" stroke="currentColor" stroke-width="2" stroke-linecap="round" stroke-linejoin="round"/>
  </g>
  <!-- Map -->
  <g transform="translate(90, 8)">
    <path d="M1 6V22L8 18L16 22L23 18V2L16 6L8 2L1 6Z" stroke="currentColor" stroke-width="2" stroke-linecap="round" stroke-linejoin="round"/>
  </g>
  <!-- Rankings -->
  <g transform="translate(130, 8)">
    <path d="M6 20V10M12 20V4M18 20V14" stroke="currentColor" stroke-width="2" stroke-linecap="round" stroke-linejoin="round"/>
    <path d="M2 20H22" stroke="currentColor" stroke-width="2" stroke-linecap="round"/>
  </g>
  <!-- Profile -->
  <g transform="translate(170, 8)">
    <path d="M20 21V19C20 17.9391 19.5786 16.9217 18.8284 16.1716C18.0783 15.4214 17.0609 15 16 15H8C6.93913 15 5.92172 15.4214 5.17157 16.1716C4.42143 16.9217 4 17.9391 4 19V21" stroke="currentColor" stroke-width="2" stroke-linecap="round" stroke-linejoin="round"/>
    <circle cx="12" cy="7" r="4" stroke="currentColor" stroke-width="2" stroke-linecap="round" stroke-linejoin="round"/>
  </g>
</svg>
